<?xml version="1.0" encoding="UTF-8"?>
<!DOCTYPE svg PUBLIC "-//W3C//DTD SVG 1.1//EN" "http://www.w3.org/Graphics/SVG/1.1/DTD/svg11.dtd">
<svg xmlns="http://www.w3.org/2000/svg" version="1.1" width="645px" height="580px" style="shape-rendering:geometricPrecision; text-rendering:geometricPrecision; image-rendering:optimizeQuality; fill-rule:evenodd; clip-rule:evenodd" xmlns:xlink="http://www.w3.org/1999/xlink">
<g><path style="opacity:0.975" fill="#fdfdfd" d="M 298.5,-0.5 C 311.167,-0.5 323.833,-0.5 336.5,-0.5C 407.549,6.77634 462.049,40.443 500,100.5C 511.525,120.741 518.858,142.408 522,165.5C 523.125,221.816 523.958,278.15 524.5,334.5C 563.954,304.887 596.12,268.887 621,226.5C 600.471,288.687 561.971,336.52 505.5,370C 474.829,387.113 441.995,396.947 407,399.5C 402.539,398.655 398.039,398.322 393.5,398.5C 392.687,332.182 392.187,265.848 392,199.5C 388.437,166.262 370.604,144.762 338.5,135C 305.244,127.419 277.744,136.585 256,162.5C 249.86,171.248 245.86,180.914 244,191.5C 243.169,267.07 243.335,342.57 244.5,418C 254.074,422.038 263.574,426.204 273,430.5C 273.333,357.5 273.667,284.5 274,211.5C 281.116,180.525 300.283,168.025 331.5,174C 347.794,180.398 357.627,192.231 361,209.5C 361.168,293.737 361.668,377.903 362.5,462C 412.052,474.857 461.052,473.19 509.5,457C 546.288,446.117 578.621,427.784 606.5,402C 607.332,401.312 607.998,401.479 608.5,402.5C 591.39,425.111 571.723,445.277 549.5,463C 497.497,493.765 441.83,502.765 382.5,490C 354.845,484.754 328.178,476.421 302.5,465C 265.606,449.23 230.939,429.897 198.5,407C 192.667,401.833 186.833,396.667 181,391.5C 180.333,322.167 180.333,252.833 181,183.5C 190.96,126.536 223.46,89.0359 278.5,71C 341.377,56.0668 392.544,73.9001 432,124.5C 445.628,144.714 453.294,167.048 455,191.5C 455.333,251.833 455.667,312.167 456,372.5C 469.521,367.239 482.521,360.906 495,353.5C 494.795,295.839 494.462,238.172 494,180.5C 487.871,124.062 460.371,81.5616 411.5,53C 349.664,20.7133 287.664,20.3799 225.5,52C 172.516,82.4492 144.349,128.283 141,189.5C 140.667,244.5 140.333,299.5 140,354.5C 135.667,352.5 131.333,350.5 127,348.5C 126.019,354.864 125.519,354.531 125.5,347.5C 121.073,346.524 116.907,344.857 113,342.5C 111.552,288.507 111.219,234.507 112,180.5C 118.926,109.94 153.426,57.773 215.5,24C 241.755,10.6331 269.421,2.46646 298.5,-0.5 Z"/></g>
<g><path style="opacity:1" fill="#1199da" d="M 414.5,383.5 C 413.167,383.5 411.833,383.5 410.5,383.5C 410.832,320.998 410.499,258.664 409.5,196.5C 404.829,157.032 383.496,131.198 345.5,119C 302.485,107.894 267.318,119.727 240,154.5C 232.378,165.698 227.711,178.031 226,191.5C 226.631,264.499 226.464,337.499 225.5,410.5C 218.833,407.5 212.167,404.5 205.5,401.5C 204.143,329.829 204.31,258.162 206,186.5C 215.216,138.947 243.049,108.113 289.5,94C 336.44,84.6462 375.607,97.8128 407,133.5C 420.753,151.081 428.419,171.081 430,193.5C 430.667,255.833 430.667,318.167 430,380.5C 424.97,382.073 419.803,383.073 414.5,383.5 Z"/></g>
<g><path style="opacity:1" fill="#a9cf48" d="M 311.5,186.5 C 330.786,185.724 342.62,194.724 347,213.5C 347.5,294.833 347.667,376.166 347.5,457.5C 342.399,456.857 337.399,455.691 332.5,454C 317.468,448.48 302.468,442.98 287.5,437.5C 287.333,363.833 287.5,290.166 288,216.5C 290.137,201.881 297.97,191.881 311.5,186.5 Z"/></g>
<g><path style="opacity:1" fill="#38afe2" d="M 409.5,196.5 C 410.499,258.664 410.832,320.998 410.5,383.5C 411.833,383.5 413.167,383.5 414.5,383.5C 413.081,384.451 411.415,384.784 409.5,384.5C 409.5,321.833 409.5,259.167 409.5,196.5 Z"/></g>
<g><path style="opacity:0.968" fill="#fcfcfc" d="M 637.5,250.5 C 634.119,331.123 595.785,388.957 522.5,424C 481.354,442.188 438.354,449.355 393.5,445.5C 393.5,437.167 393.5,428.833 393.5,420.5C 491.518,423.755 565.684,383.755 616,300.5C 624.562,284.382 631.729,267.716 637.5,250.5 Z"/></g>
<g><path style="opacity:0.969" fill="#fcfcfc" d="M 2.5,334.5 C 39.313,347.569 74.9797,363.403 109.5,382C 163.5,412.333 217.5,442.667 271.5,473C 306.395,489.966 342.729,502.966 380.5,512C 437.168,522.2 493.168,519.367 548.5,503.5C 548.833,503.833 549.167,504.167 549.5,504.5C 505.389,525.486 458.889,536.486 410,537.5C 380.091,537.751 350.925,533.251 322.5,524C 299.776,516.759 277.776,507.759 256.5,497C 209.167,469.333 161.833,441.667 114.5,414C 82.2209,395.693 49.2209,378.693 15.5,363C 10.4947,353.822 6.16139,344.322 2.5,334.5 Z"/></g>
<g><path style="opacity:0.97" fill="#fcfcfc" d="M 29.5,401.5 C 30.2506,400.427 31.2506,400.26 32.5,401C 42.3236,405.745 51.9903,410.745 61.5,416C 100.999,438.913 139.999,462.58 178.5,487C 245.123,527.309 316.456,555.976 392.5,573C 332.855,581.145 275.855,572.145 221.5,546C 166.723,518.632 116.057,485.299 69.5,446C 62.3333,438.833 55.1667,431.667 48,424.5C 41.8142,416.764 35.6475,409.097 29.5,401.5 Z"/></g>
</svg>
