<?xml version="1.0" encoding="UTF-8"?>
<!DOCTYPE svg PUBLIC "-//W3C//DTD SVG 1.1//EN" "http://www.w3.org/Graphics/SVG/1.1/DTD/svg11.dtd">
<svg xmlns="http://www.w3.org/2000/svg" version="1.1" width="645px" height="580px" style="shape-rendering:geometricPrecision; text-rendering:geometricPrecision; image-rendering:optimizeQuality; fill-rule:evenodd; clip-rule:evenodd" xmlns:xlink="http://www.w3.org/1999/xlink">
<g><path style="opacity:0.976" fill="#272729" d="M 296.5,-0.5 C 310.5,-0.5 324.5,-0.5 338.5,-0.5C 401.179,6.4157 451.679,34.749 490,84.5C 508.884,111.141 519.884,140.808 523,173.5C 523.167,227.17 523.667,280.836 524.5,334.5C 564.285,304.556 596.785,268.222 622,225.5C 600.916,287.923 562.083,336.09 505.5,370C 481.501,382.777 456.168,391.777 429.5,397C 417.872,398.499 406.206,398.832 394.5,398C 393.68,388.244 393.18,378.41 393,368.5C 392.667,311.5 392.333,254.5 392,197.5C 388.137,166.958 371.637,146.458 342.5,136C 307.89,126.54 279.056,135.374 256,162.5C 249.657,171.522 245.657,181.522 244,192.5C 243.333,267.5 243.333,342.5 244,417.5C 253.571,422.189 263.405,426.189 273.5,429.5C 273.019,355.135 273.519,280.802 275,206.5C 283.375,180.229 301.208,169.063 328.5,173C 346.396,178.895 357.23,191.062 361,209.5C 361.168,293.737 361.668,377.903 362.5,462C 416.185,475.992 468.851,472.992 520.5,453C 552.967,442.112 581.634,425.112 606.5,402C 607.332,401.312 607.998,401.479 608.5,402.5C 592.426,423.742 574.093,442.909 553.5,460C 501.096,493.016 444.429,503.016 383.5,490C 353.999,484.61 325.666,475.61 298.5,463C 262.758,447.306 229.091,428.306 197.5,406C 192,401.167 186.5,396.333 181,391.5C 180.333,322.5 180.333,253.5 181,184.5C 189.501,131.343 218.668,94.5097 268.5,74C 320.724,56.8128 368.057,65.4795 410.5,100C 437.198,124.231 452.032,154.398 455,190.5C 455.333,251.167 455.667,311.833 456,372.5C 469.521,367.239 482.521,360.906 495,353.5C 494.933,295.169 494.6,236.835 494,178.5C 487.395,123.761 460.562,82.2613 413.5,54C 362.205,25.4737 308.705,20.6403 253,39.5C 193.471,61.6868 156.804,103.687 143,165.5C 141.852,177.801 141.185,190.134 141,202.5C 140.5,252.832 140.333,303.166 140.5,353.5C 135.744,352.539 131.244,350.873 127,348.5C 126.667,349.833 126.333,351.167 126,352.5C 125.798,350.744 125.298,349.078 124.5,347.5C 120.593,345.962 116.76,344.296 113,342.5C 112.199,289.167 111.865,235.834 112,182.5C 116.353,121.612 143.186,73.4455 192.5,38C 223.967,16.4296 258.633,3.59627 296.5,-0.5 Z"/></g>
<g><path style="opacity:1" fill="#0196d7" d="M 414.5,383.5 C 413.167,383.5 411.833,383.5 410.5,383.5C 410.832,320.331 410.499,257.331 409.5,194.5C 404.513,157.67 384.513,132.837 349.5,120C 305.14,107.011 268.64,118.511 240,154.5C 233.452,164.263 229.119,174.93 227,186.5C 226.833,261.169 226.333,335.836 225.5,410.5C 218.925,407.629 212.425,404.629 206,401.5C 205.333,329.833 205.333,258.167 206,186.5C 213.641,144.394 237.141,114.894 276.5,98C 319.443,83.4906 358.443,90.4906 393.5,119C 414.822,138.477 426.989,162.644 430,191.5C 430.833,254.503 430.667,317.503 429.5,380.5C 424.531,381.659 419.531,382.659 414.5,383.5 Z"/></g>
<g><path style="opacity:1" fill="#a6cc44" d="M 311.5,186.5 C 330.928,185.42 342.761,194.42 347,213.5C 347.5,294.833 347.667,376.166 347.5,457.5C 327.08,452.193 307.247,445.193 288,436.5C 287.333,363.833 287.333,291.167 288,218.5C 289.241,202.788 297.074,192.121 311.5,186.5 Z"/></g>
<g><path style="opacity:1" fill="#0d729f" d="M 409.5,194.5 C 410.499,257.331 410.832,320.331 410.5,383.5C 411.833,383.5 413.167,383.5 414.5,383.5C 413.081,384.451 411.415,384.784 409.5,384.5C 409.5,321.167 409.5,257.833 409.5,194.5 Z"/></g>
<g><path style="opacity:0.966" fill="#272728" d="M 638.5,249.5 C 633.962,333.881 592.962,393.047 515.5,427C 476.296,442.72 435.629,448.886 393.5,445.5C 393.5,437.167 393.5,428.833 393.5,420.5C 501.913,422.739 579.746,375.405 627,278.5C 631.329,269.008 635.163,259.341 638.5,249.5 Z"/></g>
<g><path style="opacity:0.967" fill="#272728" d="M 2.5,334.5 C 35.4109,346.086 67.4109,359.92 98.5,376C 151.815,404.654 204.481,434.32 256.5,465C 299.644,488.406 345.311,504.74 393.5,514C 445.774,521.556 497.274,518.056 548,503.5C 548.5,503.833 549,504.167 549.5,504.5C 505.367,525.361 458.867,536.361 410,537.5C 382.6,537.586 355.766,533.752 329.5,526C 301.692,517.762 275.025,506.762 249.5,493C 188.274,456.135 126.274,420.468 63.5,386C 47.6228,377.895 31.6228,370.061 15.5,362.5C 10.6245,353.416 6.29115,344.082 2.5,334.5 Z"/></g>
<g><path style="opacity:0.969" fill="#272728" d="M 30.5,400.5 C 46.7427,407.621 62.4093,415.787 77.5,425C 118.571,450.397 159.904,475.397 201.5,500C 261.591,533.531 325.258,557.698 392.5,572.5C 336.458,580.41 282.458,572.91 230.5,550C 171.22,521.886 116.887,486.553 67.5,444C 53.4331,430.783 41.0998,416.283 30.5,400.5 Z"/></g>
</svg>
