<svg xmlns="http://www.w3.org/2000/svg" id="Layer_1" data-name="Layer 1" viewBox="349.25 322.2 381.58 421.98">
  <defs>
    <style>
      .cls-1 {
        fill: #eb8205;
      }

      .cls-2 {
        fill: #091057;
      }
    </style>
  </defs>
  <path class="cls-2" d="M678.44,744.16c0-2.14,0-3.74,0-5.34,0-17,.12-33.99-.04-50.98-.13-13.45-5.9-23.98-17.9-30.32-11.29-5.97-22.78-5.44-33.56,1.47-9.99,6.41-15.17,15.87-15.3,27.74-.19,17.29-.06,34.59-.06,51.88,0,1.62,0,3.24,0,5.21h-38.24c0-1.57,0-3.14,0-4.71-.01-17.59.18-35.19-.11-52.77-.22-13.6-6.83-23.67-19.05-29.46-12.25-5.8-24.19-4.25-34.88,4.04-8.67,6.72-12.66,15.9-12.62,26.89.06,16.99.01,33.99.01,50.99,0,1.61,0,3.21,0,5.09h-38.24c0-2.94,0-5.73,0-8.53,0-16.25.13-32.5-.05-48.75-.19-16.98-12.69-30.7-29.56-32.83-16.22-2.05-31.93,8.7-36.02,24.93-.9,3.56-1.16,7.37-1.18,11.06-.13,17.59-.09,35.18-.11,52.77,0,.29-.11.58-.25,1.25-1,.12-2.13.37-3.25.37-14.01.03-28.03.04-42.04,0-5.67-.02-6.72-1.1-6.72-6.92-.02-43.38-.05-86.76.02-130.14.02-15.25,10-25.05,25.33-25.06,110.32-.02,220.64-.02,330.96,0,15.26,0,25.19,9.86,25.21,25.17.06,43.23.03,86.47.02,129.7,0,6.29-.97,7.25-7.3,7.26-14.75.02-29.5,0-45.03,0Z"/>
  <path class="cls-1" d="M539.81,510.8c-42.49,0-84.98,0-127.48,0-8.17,0-9.67-2.11-6.99-9.72,21.18-60.23,80.05-99.1,143.77-94.92,57.5,3.78,106.75,41.1,125.67,95.26,2.47,7.08.88,9.38-6.6,9.38-42.79.01-85.58,0-128.37,0Z"/>
  <path class="cls-1" d="M539.53,561.18c-51.11,0-102.22-.08-153.33.08-8.4.03-9.37-2.71-7.72-10.26,2.24-10.27,10.73-17.27,21.62-18.33,1.33-.13,2.68-.12,4.02-.12,90.6,0,181.19-.01,271.79,0,13.09,0,22.25,6.37,25.37,17.62.47,1.7.66,3.5.78,5.27.26,3.64-1.42,5.65-5.17,5.7-1.34.02-2.68.02-4.02.02-51.11,0-102.22,0-153.33,0Z"/>
  <path class="cls-2" d="M572.21,350.48c0-7.29-.04-14.58.01-21.87.03-4.82,1.57-6.33,6.46-6.35,8.78-.04,17.56-.08,26.34,0,8.72.09,14.63,5.82,14.77,14.48.15,9.52.17,19.05-.01,28.57-.15,8.18-6.03,14.01-14.19,14.14-9.07.15-18.15.08-27.23.02-4.53-.03-6.11-1.65-6.14-6.23-.06-7.59-.02-15.18-.02-22.77Z"/>
  <path class="cls-2" d="M559.01,356.07c0,9.09.05,18.18-.02,27.27-.04,5.11-1.35,6.2-6.5,6.16-8.34-.05-16.68-.05-25.02.02-5.07.04-6.44-1.09-6.45-6.21-.05-15.5-.1-31,.03-46.5.07-8.74,5.96-14.43,14.71-14.56,5.51-.08,11.03-.04,16.54,0,5.33.03,6.67,1.31,6.7,6.55.05,9.09.01,18.18.01,27.27Z"/>
</svg>